<svg xmlns="http://www.w3.org/2000/svg" width="20.39" height="17.103" viewBox="0 0 20.39 17.103">
  <g id="Grupo_4" data-name="Grupo 4" transform="translate(-18.849 -135.342)">
    <g id="Icon_clothings" data-name="Icon clothings">
      <path id="Caminho_11" data-name="Caminho 11" d="M19.1,142.024c.877-1.313,3.459-4.414,3.459-4.414s2.51-3.111,4.064-2.046c.46.407,1.058,2.15,3.376,2.046,0,1.005.241,7.69.241,14.835l-7.436-.037v-7.993l-2.855-.816S18.22,143.338,19.1,142.024Z" fill="#a7a5ad"/>
      <path id="Caminho_12" data-name="Caminho 12" d="M29.989,142.024c-.877-1.313-3.459-4.414-3.459-4.414s-2.51-3.111-4.064-2.046c-.46.407-1.058,2.15-3.376,2.046,0,1.005-.241,7.69-.241,14.835l7.436-.037v-7.993l2.855-.816S30.866,143.338,29.989,142.024Z" transform="translate(9.001)" fill="#a7a5ad"/>
    </g>
  </g>
</svg>
