<svg xmlns="http://www.w3.org/2000/svg" width="21.186" height="12.164" viewBox="0 0 21.186 12.164">
  <g id="Componente_8_1" data-name="Componente 8 – 1" transform="translate(0)">
    <g id="Grupo_7" data-name="Grupo 7" transform="translate(-308.582 -193.077)">
      <g id="Grupo_6" data-name="Grupo 6" transform="translate(0 54)">
        <g id="Grupo_5" data-name="Grupo 5">
          <path id="Caminho_1150" data-name="Caminho 1150" d="M39.768,143.122V148.9H34.509C34.068,144.691,37.882,143.41,39.768,143.122Z" transform="translate(290)" fill="#a7a5ad"/>
        </g>
      </g>
      <path id="Caminho_1148" data-name="Caminho 1148" d="M18.625,148.4a8.451,8.451,0,0,1,2.128-3.34,6.289,6.289,0,0,1,.712-.642c2.383,2.14,6.94,2.209,1.275-.83.775-.494,1-.661,1.825-1.145,3.786,2.96,5.047,1.549,1.133-.655.8-.452,1.342-.751,2.076-1.151a9.942,9.942,0,0,0,2.346,1.579c.34.109.971-.206.348-.967a18.975,18.975,0,0,0-1.541-1.2,19.819,19.819,0,0,1,2.654-.971c2.772,3.285,7.1.429,7.1.429h1.09s-.009.891,0,2.8c-7.14.878-5.95,6.6-5.95,6.6a4.742,4.742,0,0,0-6.555,0c-3.809-.023-8.239,0-8.239,0S18.42,148.87,18.625,148.4Z" transform="translate(290 54)" fill="#a7a5ad"/>
    </g>
    <path id="Caminho_1149" data-name="Caminho 1149" d="M18.2,150.491H28.532a1.68,1.68,0,0,1,2.908,0h7.945" transform="translate(-18.199 -139.077)" fill="none" stroke="#a7a5ad" stroke-width="1.5"/>
  </g>
</svg>
