<svg xmlns="http://www.w3.org/2000/svg" width="21.352" height="25.58" viewBox="0 0 21.352 25.58">
  <g id="Grupo_8" data-name="Grupo 8" transform="translate(-18.597 -130.414)">
    <path id="Caminho_20" data-name="Caminho 20" d="M29.942,131.062c-.205-.333-1.07-1.87-3.545,1.425s-1.288,4.821-.515,6.124a.941.941,0,0,1-.674,1.545s-3.385.032-4.6,2.612-.567,1.141-.567,1.141-2.211,4.992-1.169,6.691c.9,2.6.731,2.246,1.48,4.607.33.995,1.122.973,2.274.339.45-1.132,0-1.637,0-1.637s-1.845-3.456-.585-6,2.26-2.435,1.94-.386a39.187,39.187,0,0,0,.284,7.342s.484.667,2.437.908a7.785,7.785,0,0,0,2.327.119V140.5a5.828,5.828,0,0,1-2.637-4.731c.59-2.2,1.909-2.672,2.917-2.786C29.314,131.15,30.01,130.919,29.942,131.062Z" transform="translate(0 0)" fill="#a7a5ad"/>
    <path id="Caminho_1151" data-name="Caminho 1151" d="M18.6,131.062c.205-.333,1.07-1.87,3.545,1.425s1.288,4.821.515,6.124a.941.941,0,0,0,.674,1.545s3.385.032,4.6,2.612.567,1.141.567,1.141,2.211,4.992,1.169,6.691c-.9,2.6-.731,2.246-1.48,4.607-.33.995-1.122.973-2.274.339-.45-1.132,0-1.637,0-1.637s1.845-3.456.585-6-2.26-2.435-1.94-.386a39.187,39.187,0,0,1-.284,7.342s-.484.667-2.437.908a7.785,7.785,0,0,1-2.327.119V140.5a5.828,5.828,0,0,0,2.637-4.731c-.59-2.2-1.909-2.672-2.917-2.786C19.23,131.15,18.534,130.919,18.6,131.062Z" transform="translate(10.003 0)" fill="#a7a5ad"/>
  </g>
</svg>
